#N canvas 0 44 1366 708 10;
#X obj 169 626 dac~;
#X obj 273 306 basic_mixer 71;
#X obj 263 81 basic_oscsquaresquare 81 91 101;
#X obj 254 413 basic_muladdmix 87;
#X obj 580 408 basic_muladdmix 97;
#X obj 902 425 basic_muladdmix 107;
#X obj 314 494 basic_muladdmix 88;
#X obj 611 503 basic_muladdmix 98;
#X obj 844 503 basic_muladdmix 108;
#X obj 230 570 rev3~ 100 90 3000 20;
#X obj 494 74 basic_oscsquaresquare 82 92 102;
#X obj 757 64 basic_oscsquaresquare 83 93 103;
#X obj 484 298 basic_mixer 72;
#X obj 790 309 basic_mixer 73;
#X connect 1 0 3 0;
#X connect 1 0 5 0;
#X connect 2 0 1 0;
#X connect 3 0 6 0;
#X connect 3 0 8 0;
#X connect 4 0 7 0;
#X connect 4 0 8 1;
#X connect 5 0 7 1;
#X connect 5 0 6 1;
#X connect 6 0 9 0;
#X connect 7 0 9 0;
#X connect 8 0 9 0;
#X connect 9 0 0 0;
#X connect 9 1 0 1;
#X connect 10 0 12 0;
#X connect 11 0 13 0;
#X connect 12 0 3 1;
#X connect 12 0 4 0;
#X connect 13 0 4 1;
#X connect 13 0 5 1;
