#N canvas 0 44 1366 708 10;
#X obj 546 148 osc~;
#X obj 453 385 *~;
#X obj 376 149 / 10, f 7;
#X obj 369 267 snapshot~;
#X obj 180 181 tgl 15 1 empty empty empty 17 7 0 10 -262144 -1 -1 1
1;
#X obj 369 339 vline~;
#X msg 369 300 \$1 3;
#X obj 180 235 metro 1;
#X obj 215 294 / 10;
#X obj 180 351 snapshot~;
#X obj 180 422 vline~;
#X msg 180 387 \$1 3;
#X obj 320 502 *~;
#X obj 185 73 cnv 15 100 60 empty empty empty 20 12 0 14 -233017 -66577
0;
#X obj 478 149 s \$0-f1;
#X obj 437 182 s \$0-f2;
#X obj 324 564 outlet~;
#X obj 32 143 r \$0-f1;
#X obj 35 179 r \$0-f2;
#X obj 37 217 r \$0-f3;
#X floatatom 106 145 5 0 0 0 - - -, f 5;
#X floatatom 106 166 5 0 0 0 - - -, f 5;
#X floatatom 107 190 5 0 0 0 - - -, f 5;
#X obj 129 273 s \$0-sync;
#X obj 125 320 r \$0-sync;
#X obj 303 225 r \$0-sync;
#X obj 274 302 s \$0-f3;
#X obj 524 99 nrpn_in \$1;
#X obj 379 93 nrpn_in \$2;
#X obj 215 268 nrpn_in \$3;
#X text 704 57 \$1: f1 controller (osc) \$2: f2*10 controller (square)
\$3: f3*10 controller (square);
#X obj 370 227 square~;
#X obj 213 323 square~;
#X connect 0 0 1 1;
#X connect 1 0 12 1;
#X connect 2 0 15 0;
#X connect 2 0 31 0;
#X connect 3 0 6 0;
#X connect 4 0 7 0;
#X connect 5 0 1 0;
#X connect 6 0 5 0;
#X connect 7 0 23 0;
#X connect 8 0 26 0;
#X connect 8 0 32 0;
#X connect 9 0 11 0;
#X connect 10 0 12 0;
#X connect 11 0 10 0;
#X connect 12 0 16 0;
#X connect 17 0 20 0;
#X connect 18 0 21 0;
#X connect 19 0 22 0;
#X connect 24 0 9 0;
#X connect 25 0 3 0;
#X connect 27 0 0 0;
#X connect 27 0 14 0;
#X connect 28 0 2 0;
#X connect 29 0 8 0;
#X connect 31 0 3 0;
#X connect 32 0 9 0;
#X coords 0 -1 1 1 100 120 1 100 100;
