#N canvas 692 217 444 409 10;
#X obj 300 26 nrpn_in \$1;
#X obj 300 49 / 16384;
#X obj 300 80 expr 1-$f1;
#X obj 27 95 inlet~;
#X obj 120 98 inlet~;
#X obj 84 154 *~;
#X obj 79 199 +~, f 6;
#X obj 96 244 *~;
#X obj 153 241 *~;
#X obj 123 271 +~;
#X obj 130 324 outlet~;
#X connect 0 0 1 0;
#X connect 1 0 2 0;
#X connect 1 0 7 1;
#X connect 2 0 8 1;
#X connect 3 0 5 0;
#X connect 3 0 6 0;
#X connect 4 0 5 1;
#X connect 4 0 6 1;
#X connect 5 0 8 0;
#X connect 6 0 7 0;
#X connect 7 0 9 0;
#X connect 8 0 9 1;
#X connect 9 0 10 0;
