#N canvas 679 315 450 300 10;
#X obj 125 140 vcf~;
#X obj 155 49 nrpn_in \$1;
#X obj 66 82 inlet~;
#X obj 126 216 outlet~;
#X obj 130 75 sig~;
#X obj 260 49 nrpn_in \$2;
#X obj 273 82 / 16384;
#X obj 208 217 outlet~;
#X floatatom 166 97 5 0 0 0 - - -, f 5;
#X floatatom 284 125 5 0 0 0 - - -, f 5;
#X connect 0 0 3 0;
#X connect 0 1 7 0;
#X connect 1 0 4 0;
#X connect 1 0 8 0;
#X connect 2 0 0 0;
#X connect 4 0 0 1;
#X connect 5 0 6 0;
#X connect 6 0 0 2;
#X connect 6 0 9 0;
