#N canvas 0 1124 1366 708 10;
#X obj 314 202 osc~ 440;
#X obj 315 232 *~ 0.1;
#X floatatom 422 195 5 0 1 0 - - -, f 5;
#X obj 203 54 ctlin 81;
#X obj 187 97 / 100;
#X obj 338 110 line;
#X msg 310 65 \$1 10;
#X obj 91 180 ctlin 89;
#X obj 126 259 * 10;
#X obj 897 212 osc~ 440;
#X obj 898 242 *~ 0.1;
#X floatatom 1005 205 5 0 1 0 - - -, f 5;
#X obj 770 107 / 100;
#X obj 921 120 line;
#X msg 893 75 \$1 10;
#X obj 709 269 * 10;
#X obj 789 66 ctlin 82;
#X obj 674 190 ctlin 90;
#X obj 537 421 *~;
#X obj 557 485 dac~;
#X connect 0 0 1 0;
#X connect 1 0 18 0;
#X connect 2 0 1 1;
#X connect 3 0 4 0;
#X connect 4 0 6 0;
#X connect 5 0 2 0;
#X connect 6 0 5 0;
#X connect 7 0 8 0;
#X connect 8 0 0 0;
#X connect 9 0 10 0;
#X connect 10 0 18 1;
#X connect 11 0 10 1;
#X connect 12 0 14 0;
#X connect 13 0 11 0;
#X connect 14 0 13 0;
#X connect 15 0 9 0;
#X connect 16 0 12 0;
#X connect 17 0 15 0;
#X connect 18 0 19 0;
#X connect 18 0 19 1;
