#N canvas 0 44 1366 708 10;
#X obj 276 197 ctlin;
#X obj 365 305 print \$1 \$2 \$3;
#X obj 364 477 nrpn_in 71;
#X floatatom 267 429 5 0 0 0 - - -, f 5;
#X obj 261 463 osc~;
#X obj 349 552 *~;
#X obj 364 508 / 16384;
#X obj 387 616 dac~;
#X obj 153 418 nrpn_in 81;
#X floatatom 458 553 5 0 0 0 - - -, f 5;
#X connect 2 0 6 0;
#X connect 4 0 5 0;
#X connect 5 0 7 0;
#X connect 5 0 7 1;
#X connect 6 0 5 1;
#X connect 6 0 9 0;
#X connect 8 0 4 0;
#X connect 8 0 3 0;
